<svg xmlns="http://www.w3.org/2000/svg" aria-hidden="true" overflow="hidden" style="position:absolute;width:0;height:0">
  <defs>
    <symbol id="icon-Arrow" viewBox="0 0 32 32">
      <path d="M.944 17.257a1.778 1.778 0 0 1 0-2.514L12.258 3.429a1.778 1.778 0 0 1 2.514 2.514L4.715 16l10.057 10.057a1.778 1.778 0 0 1-2.514 2.514L.944 17.257zM32 17.778H2.201v-3.556H32v3.556z"/>
    </symbol>
    <symbol id="icon-Atom" viewBox="0 0 29 32">
      <path d="M14.612.072c-1.145 0-2.215.522-3.127 1.376S9.793 3.492 9.142 4.933a18.01 18.01 0 0 0-.391.939 18.142 18.142 0 0 0-1.011-.131 14.909 14.909 0 0 0-1.15-.072c-1.12-.027-2.143.087-3.04.359-1.196.363-2.182 1.028-2.755 2.02s-.656 2.179-.372 3.396c.284 1.217.924 2.488 1.847 3.772.194.269.401.539.619.81-.214.264-.42.533-.618.809C1.348 18.119.708 19.39.424 20.607s-.201 2.404.372 3.396 1.559 1.658 2.755 2.02 2.616.444 4.19.287c.33-.033.667-.077 1.01-.131.122.317.252.631.392.941.651 1.441 1.431 2.631 2.343 3.485s1.982 1.376 3.127 1.376c1.145 0 2.215-.522 3.127-1.376s1.692-2.044 2.343-3.485c.14-.31.27-.624.392-.941a17.9 17.9 0 0 0 1.009.131c1.573.157 2.994.076 4.19-.287s2.182-1.028 2.755-2.02.656-2.179.372-3.396-.924-2.488-1.847-3.772a17.818 17.818 0 0 0-.618-.809c.214-.264.42-.534.619-.809.923-1.284 1.563-2.555 1.847-3.772s.201-2.404-.372-3.396-1.559-1.658-2.755-2.02c-.897-.272-1.92-.385-3.039-.359-.373.009-.757.033-1.15.072-.33.033-.667.077-1.01.131-.122-.317-.252-.63-.391-.939-.651-1.441-1.431-2.631-2.343-3.485S15.76.073 14.615.073zm0 1.274c.764 0 1.513.336 2.256 1.032s1.452 1.749 2.053 3.08c.098.217.191.436.279.657-1.46.325-3.007.823-4.588 1.488a27.09 27.09 0 0 0-4.587-1.488c.09-.226.183-.446.279-.658.601-1.331 1.31-2.384 2.053-3.08s1.492-1.031 2.256-1.031zM6.186 6.941a13.553 13.553 0 0 1 1.428.068c.232.023.47.053.711.088a27.024 27.024 0 0 0-1.005 4.717 27.01 27.01 0 0 0-3.583 3.229 15.801 15.801 0 0 1-.431-.571c-.852-1.185-1.409-2.326-1.641-3.318s-.147-1.808.235-2.469c.382-.662 1.047-1.143 2.021-1.438.639-.194 1.405-.298 2.266-.306zm16.852 0c.861.008 1.626.112 2.266.306.974.295 1.639.776 2.021 1.438s.466 1.478.235 2.469c-.231.991-.789 2.132-1.641 3.318-.14.194-.283.384-.431.571a27.13 27.13 0 0 0-3.582-3.229 27.056 27.056 0 0 0-1.005-4.718 14.236 14.236 0 0 1 1.763-.154c.125-.003.25-.004.375-.003zm-3.404.385c.339 1.053.619 2.214.829 3.457a34.473 34.473 0 0 0-4.237-2.446 24.633 24.633 0 0 1 3.408-1.01zm-10.044 0a24.76 24.76 0 0 1 3.407 1.01 34.599 34.599 0 0 0-4.236 2.445c.209-1.243.49-2.404.829-3.456zm5.022 1.668c1.037.457 2.089.989 3.138 1.595s2.037 1.252 2.951 1.921c.122 1.127.188 2.304.188 3.516s-.066 2.388-.188 3.514a32.84 32.84 0 0 1-6.09 3.516c-1.037-.457-2.09-.989-3.139-1.595s-2.036-1.251-2.95-1.92c-.122-1.127-.188-2.304-.188-3.515s.066-2.39.188-3.517a32.822 32.822 0 0 1 6.088-3.515zm.086 1.917-3.648 2.251 3.648 2.251 3.648-2.251-3.648-2.251zm-7.552 2.668a35.027 35.027 0 0 0 0 4.892 24.586 24.586 0 0 1-2.579-2.446 24.69 24.69 0 0 1 2.579-2.446zm14.932.001a24.77 24.77 0 0 1 2.578 2.445 24.666 24.666 0 0 1-2.578 2.445 34.992 34.992 0 0 0 0-4.891zm-11.85.572v4.445l3.831 2.364v-4.445l-3.831-2.365zm8.936.002-3.83 2.364v4.443l3.83-2.364v-4.443zM3.736 17.007a26.94 26.94 0 0 0 3.583 3.229c.214 1.701.556 3.29 1.005 4.716-.241.035-.478.064-.71.088-1.453.145-2.72.057-3.693-.238s-1.639-.776-2.021-1.438c-.382-.662-.466-1.478-.235-2.469s.789-2.132 1.641-3.318c.139-.193.283-.384.43-.57zm21.752 0c.15.191.295.381.43.57.852 1.185 1.409 2.326 1.641 3.318s.147 1.808-.235 2.469c-.382.662-1.047 1.143-2.021 1.438s-2.241.383-3.693.238a15.414 15.414 0 0 1-.709-.088 27.036 27.036 0 0 0 1.005-4.718 27.057 27.057 0 0 0 3.582-3.228zm-5.025 4.26a24.682 24.682 0 0 1-.829 3.457 24.781 24.781 0 0 1-3.408-1.011 35.272 35.272 0 0 0 4.236-2.446zm-11.702.001a35.248 35.248 0 0 0 4.235 2.446c-1.181.44-2.326.778-3.407 1.01a24.773 24.773 0 0 1-.829-3.456zm5.889.058.046.029.046-.029h-.092zm-.038 3.121a27.128 27.128 0 0 0 4.588 1.488c-.088.222-.181.442-.279.659-.601 1.33-1.31 2.384-2.053 3.08s-1.492 1.032-2.256 1.032c-.764 0-1.513-.336-2.256-1.032s-1.452-1.749-2.053-3.08a16.45 16.45 0 0 1-.279-.659 27.128 27.128 0 0 0 4.588-1.488z"/>
    </symbol>
    <symbol id="icon-Call" viewBox="0 0 32 32">
      <path d="m27.655 22.957-.173-.216c-1.372-1.735-2.519-2.637-3.503-2.756-.851-.116-1.673.472-2.548 1.077l-.935.584a2.054 2.054 0 0 1-.327.132c-.547.155-1.927.245-2.708-.469-.909-.832-2.32-2.355-3.417-3.685-1.048-1.377-2.2-3.095-2.801-4.176-.508-.916-.083-2.197.201-2.672.056-.093.129-.185.211-.276l.824-.761c.012-.012.017-.027.028-.037.008-.008.021-.005.031-.012.744-.628 1.513-1.275 1.619-2.105.124-.976-.483-2.296-1.857-4.029l-.168-.216C11.281 2.249 9.995.6 8.147.872c-.727.108-1.376.356-2.045.776-.007.004-.011.012-.016.016s-.012.004-.017.008l-.932.691c-.009.005-.015.017-.024.025-.007.007-.017.008-.025.015a13.74 13.74 0 0 0-.323.28c-.945.843-2.992 3.289-1.596 7.815.901 2.923 2.76 6.333 5.388 9.883l-.025.021 1.449 1.805.012-.009c2.849 3.371 5.749 5.976 8.407 7.553 1.773 1.053 3.323 1.401 4.597 1.401 1.677 0 2.879-.603 3.481-.995l.379-.253c.043-.029.073-.071.104-.108l.825-.621c.009-.008.015-.019.024-.027.004-.004.011-.003.016-.007.587-.536.993-1.097 1.276-1.763.732-1.705-.579-3.339-1.445-4.42zm.465 4.002c-.22.517-.541.957-1.005 1.384l-1.228.924c-1.112.723-3.489 1.616-6.943-.435-2.657-1.577-5.583-4.244-8.461-7.712l-.779-.984c-2.711-3.595-4.617-7.037-5.517-9.955-1.169-3.793.304-5.828 1.291-6.707.1-.091.2-.175.299-.259l.004-.004.895-.663a4.067 4.067 0 0 1 1.628-.624c1.239-.187 2.247 1.12 2.987 2.069l.173.22C13 6.15 13.148 7.072 13.1 7.448c-.053.417-.688.952-1.248 1.423l-.079.067c-.003.003-.004.007-.007.009l-.012.007-.852.788c-.005.005-.008.012-.013.019s-.016.009-.021.016a3.007 3.007 0 0 0-.337.449c-.479.801-.931 2.457-.217 3.739.623 1.12 1.808 2.889 2.897 4.319 1.139 1.381 2.591 2.949 3.532 3.809.705.644 1.687.86 2.536.86.455 0 .872-.063 1.188-.152.167-.048.339-.117.516-.204.011-.005.016-.015.027-.021.005-.003.013-.001.019-.005l.989-.619c.032-.021.053-.049.08-.076l.012.013c.609-.423 1.304-.919 1.739-.847.385.047 1.26.417 2.799 2.36l.177.223c.749.935 1.776 2.215 1.297 3.333z"/>
    </symbol>
    <symbol id="icon-crown" viewBox="0 0 32 32">
      <path d="M30.932 9.083c-.276-.25-.609-.41-.963-.463s-.715.004-1.041.163l-6.886 3.36c-.03.018-.064.03-.098.033s-.069 0-.102-.011c-.033-.011-.064-.03-.09-.054s-.048-.054-.064-.088l-4.023-7.95c-.163-.329-.404-.603-.696-.794s-.627-.292-.967-.292c-.34 0-.674.101-.967.292s-.533.465-.696.794l-4.023 7.95c-.016.034-.038.064-.064.088s-.057.043-.09.054a.236.236 0 0 1-.2-.022l-6.886-3.36c-.325-.162-.686-.221-1.04-.169s-.688.212-.964.462-.482.58-.595.953-.13.773-.047 1.155l3.477 16.245c.059.275.168.533.32.76s.345.417.566.56a1.732 1.732 0 0 0 1.486.225 33.332 33.332 0 0 1 19.432-.015c.248.079.508.101.764.066s.503-.127.726-.27.417-.334.571-.562a2.2 2.2 0 0 0 .324-.764l3.464-16.245c.087-.379.074-.778-.038-1.15s-.316-.701-.59-.95zm-.955 1.68L26.5 27.008a.347.347 0 0 1-.123.195.313.313 0 0 1-.218.03 34.819 34.819 0 0 0-20.318 0 .25.25 0 0 1-.214-.031c-.032-.021-.06-.049-.081-.082s-.037-.071-.045-.111L2.024 10.764a.34.34 0 0 1 .057-.256c.026-.036.059-.065.096-.085s.078-.032.119-.033l.109.03 6.9 3.375c.435.216.928.243 1.381.076s.831-.515 1.06-.976l4.023-7.95a.282.282 0 0 1 .095-.115.238.238 0 0 1 .272 0 .284.284 0 0 1 .096.115l4.023 7.95c.229.46.608.809 1.06.976s.946.14 1.381-.076l6.9-3.375a.248.248 0 0 1 .286.045c.04.035.07.082.087.135s.02.11.009.165zm-8.795 11.4c-.023.222-.119.426-.27.575s-.346.233-.548.235h-.082a38.923 38.923 0 0 0-8.564 0c-.215.025-.43-.044-.599-.193s-.277-.365-.301-.602c-.019-.238.047-.475.185-.66s.336-.303.552-.33a38.318 38.318 0 0 1 8.891 0c.213.027.409.143.547.325s.205.415.19.65z"/>
    </symbol>
    <symbol id="icon-Facebook" viewBox="0 0 32 32">
      <path d="M24.261 1.245a41.42 41.42 0 0 0-4.468-.23c-4.948 0-8.023 3.151-8.023 8.224v3.444H7.614a.735.735 0 0 0-.735.735v5.664a.735.735 0 0 0 .735.735h4.156v11.358a.733.733 0 0 0 .735.735h5.853a.735.735 0 0 0 .735-.735V19.817h4.143a.733.733 0 0 0 .729-.64l.731-5.664a.724.724 0 0 0-.177-.581.725.725 0 0 0-.554-.25h-4.874V9.8c0-1.427.287-2.023 2.072-2.023h3a.735.735 0 0 0 .735-.735V1.973a.733.733 0 0 0-.64-.729zm-.831 5.061-2.266.001c-3.174 0-3.541 1.995-3.541 3.494v3.619a.735.735 0 0 0 .734.736h4.776l-.543 4.193h-4.231a.733.733 0 0 0-.735.735v11.355h-4.381V19.084a.733.733 0 0 0-.735-.735H8.353v-4.193h4.155a.735.735 0 0 0 .735-.735V9.24c0-4.228 2.45-6.753 6.552-6.753 1.484 0 2.825.081 3.637.152v3.668z"/>
    </symbol>
    <symbol id="icon-Instagram" viewBox="0 0 32 32">
      <path d="M16 8.923a7.075 7.075 0 0 0-6.539 4.369 7.075 7.075 0 0 0 9.246 9.246 7.082 7.082 0 0 0 4.369-6.539 7.077 7.077 0 0 0-7.077-7.077zm0 12.308a5.228 5.228 0 0 1-4.833-3.229 5.225 5.225 0 0 1 1.134-5.7 5.228 5.228 0 0 1 8.047.793c.575.86.882 1.871.882 2.906-.004 1.386-.556 2.714-1.537 3.694s-2.308 1.532-3.694 1.537zM22.769.923H9.231A8.307 8.307 0 0 0 .924 9.23v13.538a8.307 8.307 0 0 0 8.307 8.307h13.538a8.307 8.307 0 0 0 8.307-8.307V9.23A8.307 8.307 0 0 0 22.769.923zm6.462 21.846a6.46 6.46 0 0 1-6.462 6.462H9.231a6.46 6.46 0 0 1-6.462-6.462V9.231a6.46 6.46 0 0 1 6.462-6.462h13.538a6.46 6.46 0 0 1 6.462 6.462v13.538zM25.538 8a1.54 1.54 0 0 1-2.626 1.089 1.535 1.535 0 0 1-.333-1.677 1.542 1.542 0 0 1 1.422-.949 1.538 1.538 0 0 1 1.539 1.539z"/>
    </symbol>
    <symbol id="icon-kosmetik" viewBox="0 0 32 32">
      <path d="M9.755 11.589H-.137a.539.539 0 0 0-.55.527v3.164c0 .292.246.527.55.527h.55v12.127c0 .292.246.527.55.527h7.694c.304 0 .55-.236.55-.527V15.807h.55c.304 0 .55-.236.55-.527v-3.164a.538.538 0 0 0-.55-.527zM3.71 21.607v-1.055h3.297v-1.055H3.71v-1.055h4.396v6.854H3.71V22.66h1.099v-1.055H3.71zm4.396-4.218H3.16a.539.539 0 0 0-.55.527v7.909c0 .292.246.527.55.527h4.946v1.055H1.511v-11.6h6.595v1.582zm1.099-2.636H.412v-2.109h8.793v2.109zm7.831-3.065V7.833c0-.3-.246-.543-.55-.543h-.55V4.576h1.099V3.49H10.99v1.086h3.847V7.29h-.55a.546.546 0 0 0-.55.543v3.855c-1.252.252-2.198 1.348-2.198 2.659v13.571c0 .3.246.543.55.543h6.595c.304 0 .55-.243.55-.543V14.347c0-1.31-.946-2.407-2.198-2.659zm-2.198-3.312h1.099v3.257h-1.099V8.376zm-.549 4.343h2.198c.909 0 1.649.731 1.649 1.629v.543H12.64v-.543c0-.898.74-1.629 1.649-1.629zm3.846 12.485h-5.496v-1.086h2.198v-1.086h-2.198v-7.057h5.496v9.228zm-5.495 2.172V26.29h5.496v1.086H12.64zm18.444-16.462H21.81a.523.523 0 0 0-.515.532V27.93c0 .294.23.532.515.532h9.274a.523.523 0 0 0 .515-.532V11.446a.523.523 0 0 0-.515-.532zm-.515 16.484h-8.243v-15.42h8.243v15.42z"/>
      <path d="M7.557 21.712H6.183v.675h1.374v-.675zm9.617 1.35H15.8v1.35h1.374v-1.35zm-1.718-1.35c1.326 0 2.404-1.059 2.404-2.362s-1.078-2.362-2.404-2.362c-1.326 0-2.404 1.059-2.404 2.362s1.078 2.362 2.404 2.362zm0-3.543c.663 0 1.202.53 1.202 1.181s-.539 1.181-1.202 1.181c-.663 0-1.202-.53-1.202-1.181s.539-1.181 1.202-1.181zm9.703-1.856h2.576c.994 0 1.803-.757 1.803-1.687s-.809-1.687-1.803-1.687h-2.576c-.994 0-1.803.757-1.803 1.687s.809 1.687 1.803 1.687zm3.349-1.687c0 .399-.347.723-.773.723h-.773v-1.446h.773c.426 0 .773.324.773.723zm-3.349-.723h.773v1.446h-.773c-.426 0-.773-.324-.773-.723s.347-.723.773-.723zm0 7.809h2.576c.994 0 1.803-.908 1.803-2.025s-.809-2.025-1.803-2.025h-2.576c-.994 0-1.803.908-1.803 2.025s.809 2.025 1.803 2.025zm3.349-2.024c0 .478-.347.868-.773.868h-.773v-1.735h.773c.426 0 .773.389.773.868zm-3.349-.868h.773v1.735h-.773c-.426 0-.773-.389-.773-.868s.347-.868.773-.868zm0 7.617h2.576c.994 0 1.803-.908 1.803-2.025s-.809-2.025-1.803-2.025h-2.576c-.994 0-1.803.908-1.803 2.025s.809 2.025 1.803 2.025zm3.349-2.025c0 .478-.347.868-.773.868h-.773v-1.735h.773c.426 0 .773.389.773.868zm-3.349-.868h.773v1.735h-.773c-.426 0-.773-.389-.773-.868s.347-.868.773-.868z"/>
    </symbol>
  </defs>
</svg>
